# xmcd
#
# Track frame offsets: 
#        150
#        10695
#        25185
#        38775
#        55067
#        68367
#        87070
#        100295
#        116157
#        132497
#
# Disc length: 1990 seconds
#
# Revision: 2
# Processed by: cddbd v1.4PL0 Copyright (c) Steve Scherf et al.
# Submitted via: ExactAudioCopy v0.90b4
#
DISCID=7607c40a
DTITLE=Ricky Skaggs - Comin' Home To Stay
DYEAR=1900
DGENRE=Country
TTITLE0=I'm Tired
TTITLE1=Hold Whatcha Got
TTITLE2=(Angel On My Mind) That's Why I'm Walkin'
TTITLE3=Home Is Whereever You Are (Duet With Sharon White)
TTITLE4=If You Don't Believe The Bible
TTITLE5=San Antonio Rose
TTITLE6=Lord, She Sure Is Good At Lovin' Me
TTITLE7=Old Kind Of Love
TTITLE8=Thanks Again
TTITLE9=Woman You Won't Break Mine
EXTD=
EXTT0=
EXTT1=
EXTT2=
EXTT3=
EXTT4=
EXTT5=
EXTT6=
EXTT7=
EXTT8=
EXTT9=
PLAYORDER=
